<?xml version="1.0" encoding="UTF-8"?>
<svg id="Layer_1" xmlns="http://www.w3.org/2000/svg" xmlns:xlink="http://www.w3.org/1999/xlink" version="1.1" viewBox="0 0 2521 2911">
  <!-- Generator: Adobe Illustrator 29.1.0, SVG Export Plug-In . SVG Version: 2.1.0 Build 142)  -->
  <defs>
    <style>
      .st0 {
        fill: #f6f8fa;
      }

      .st0, .st1 {
        stroke: #dfe1e5;
      }

      .st0, .st1, .st2 {
        stroke-width: 2px;
      }

      .st1 {
        fill: #e9ecf0;
      }

      .st2 {
        fill: #f2f9ff;
      }

      .st2, .st3 {
        stroke: #a3c4e6;
      }

      .st4 {
        fill: #e2ebf6;
        stroke: #bfd4e8;
      }

      .st4, .st5 {
        stroke-width: 6px;
      }

      .st6 {
        opacity: .7;
      }

      .st6, .st7, .st8, .st9, .st10 {
        isolation: isolate;
      }

      .st6, .st9, .st5 {
        fill: #4d8bf0;
      }

      .st3 {
        fill: none;
        stroke-width: 3px;
      }

      .st7 {
        font-size: 180px;
      }

      .st7, .st11 {
        fill: #fff;
      }

      .st7, .st9 {
        font-family: Arial-BoldMT, Arial;
        font-weight: 700;
      }

      .st12 {
        fill: #dce8f5;
      }

      .st13 {
        fill: url(#linear-gradient);
        stroke: #234870;
        stroke-width: 35px;
      }

      .st14 {
        fill: #d9dde3;
      }

      .st8 {
        font-size: 24px;
      }

      .st8, .st10 {
        fill: #5a6069;
        font-family: CourierNewPSMT, 'Courier New';
      }

      .st11 {
        stroke: #333;
        stroke-width: 8px;
      }

      .st9 {
        font-size: 56.1px;
      }

      .st5 {
        stroke: #fff;
      }

      .st10 {
        font-size: 22.4px;
      }
    </style>
    <linearGradient id="linear-gradient" x1="962.6" y1="1876.3" x2="963.6" y2="1875.3" gradientTransform="translate(-2146381.5 4835346.6) scale(2230 -2577)" gradientUnits="userSpaceOnUse">
      <stop offset="0" stop-color="#4d8bf0"/>
      <stop offset="1" stop-color="#2a5a8a"/>
    </linearGradient>
  </defs>
  <path class="st13" d="M1260.5,144.5l1115,644v1289l-1115,644L145.5,2077.5V788.5L1260.5,144.5Z"/>
  <g>
    <path class="st4" d="M1018.8,519.9h461.5c38.8,0,70.2,29.3,70.2,65.4h0c0,36.1-31.4,65.4-70.2,65.4h-461.5c-38.8,0-70.2-29.3-70.2-65.4h0c0-36.1,31.4-65.4,70.2-65.4Z"/>
    <text class="st9" transform="translate(1123.9 604)"><tspan x="0" y="0">Show Output</tspan></text>
    <circle class="st5" cx="1023.4" cy="585.3" r="56.1"/>
  </g>
  <rect class="st11" x="331.6" y="737" width="794.2" height="1354.8" rx="30" ry="30"/>
  <rect class="st0" x="359.6" y="783.7" width="738.1" height="654" rx="10" ry="10"/>
  <rect class="st1" x="359.6" y="783.7" width="738.1" height="37.4" rx="10" ry="10"/>
  <rect class="st1" x="1415.4" y="783.7" width="738.1" height="37.4" rx="10" ry="10"/>
  <text class="st10" transform="translate(1434.1 808.9)"><tspan x="0" y="0">```</tspan></text>
  <rect class="st1" x="1415.4" y="783.7" width="738.1" height="37.4" rx="10" ry="10"/>
  <text class="st10" transform="translate(1434.1 808.9)"><tspan x="0" y="0">```</tspan></text>
  <text class="st8" transform="translate(378.3 808.9)"><tspan x="0" y="0">```</tspan></text>
  <rect class="st14" x="378.3" y="839.7" width="700.8" height="32.7" rx="5" ry="5"/>
  <rect class="st14" x="378.3" y="886.5" width="588.6" height="32.7" rx="5" ry="5"/>
  <rect class="st14" x="378.3" y="933.2" width="672.7" height="32.7" rx="5" ry="5"/>
  <rect class="st14" x="378.3" y="979.9" width="495.2" height="32.7" rx="5" ry="5"/>
  <rect class="st14" x="378.3" y="1026.6" width="626" height="32.7" rx="5" ry="5"/>
  <rect class="st14" x="378.3" y="1073.3" width="560.6" height="32.7" rx="5" ry="5"/>
  <rect class="st14" x="378.3" y="1120.1" width="635.4" height="32.7" rx="5" ry="5"/>
  <rect class="st14" x="378.3" y="1166.8" width="541.9" height="32.7" rx="5" ry="5"/>
  <rect class="st14" x="378.3" y="1213.5" width="663.4" height="32.7" rx="5" ry="5"/>
  <rect class="st14" x="378.3" y="1260.2" width="513.9" height="32.7" rx="5" ry="5"/>
  <rect class="st14" x="378.3" y="1306.9" width="598" height="32.7" rx="5" ry="5"/>
  <rect class="st14" x="378.3" y="1353.6" width="654" height="32.7" rx="5" ry="5"/>
  <rect class="st11" x="1387.4" y="737" width="794.2" height="1354.8" rx="30" ry="30"/>
  <rect class="st0" x="1415.4" y="783.7" width="738.1" height="654" rx="10" ry="10"/>
  <rect class="st1" x="1415.4" y="783.7" width="738.1" height="37.4" rx="10" ry="10"/>
  <text class="st8" transform="translate(1434.1 808.9)"><tspan x="0" y="0">```</tspan></text>
  <rect class="st14" x="1434.1" y="839.7" width="700.8" height="32.7" rx="5" ry="5"/>
  <rect class="st14" x="1434.1" y="886.5" width="588.6" height="32.7" rx="5" ry="5"/>
  <rect class="st14" x="1434.1" y="933.2" width="672.7" height="32.7" rx="5" ry="5"/>
  <rect class="st14" x="1434.1" y="979.9" width="495.2" height="32.7" rx="5" ry="5"/>
  <rect class="st14" x="1434.1" y="1026.6" width="626" height="32.7" rx="5" ry="5"/>
  <rect class="st14" x="1434.1" y="1073.3" width="560.6" height="32.7" rx="5" ry="5"/>
  <rect class="st14" x="1434.1" y="1120.1" width="635.4" height="32.7" rx="5" ry="5"/>
  <rect class="st14" x="1434.1" y="1166.8" width="541.9" height="32.7" rx="5" ry="5"/>
  <rect class="st14" x="1434.1" y="1213.5" width="663.4" height="32.7" rx="5" ry="5"/>
  <rect class="st14" x="1434.1" y="1260.2" width="513.9" height="32.7" rx="5" ry="5"/>
  <rect class="st14" x="1434.1" y="1306.9" width="598" height="32.7" rx="5" ry="5"/>
  <rect class="st14" x="1434.1" y="1353.6" width="654" height="32.7" rx="5" ry="5"/>
  <rect class="st2" x="1415.4" y="1456.4" width="738.1" height="265" rx="10" ry="10"/>
  <rect class="st12" x="1434.1" y="1484.4" width="700.8" height="32.7" rx="5" ry="5"/>
  <rect class="st12" x="1434.1" y="1531.2" width="588.6" height="32.7" rx="5" ry="5"/>
  <rect class="st12" x="1434.1" y="1577.9" width="654" height="32.7" rx="5" ry="5"/>
  <rect class="st12" x="1434.1" y="1624.6" width="541.9" height="32.7" rx="5" ry="5"/>
  <rect class="st12" x="1434.1" y="1671.3" width="626" height="32.7" rx="5" ry="5"/>
  <g>
    <rect class="st2" x="1415.4" y="1740.1" width="738.1" height="327" rx="10" ry="10"/>
    <rect class="st6" x="1490.2" y="1800.9" width="93.4" height="205.6" rx="5" ry="5"/>
    <rect class="st6" x="1611.6" y="1838.2" width="93.4" height="168.2" rx="5" ry="5"/>
    <rect class="st6" x="1733.1" y="1875.6" width="93.4" height="130.8" rx="5" ry="5"/>
    <rect class="st6" x="1854.6" y="1819.5" width="93.4" height="186.9" rx="5" ry="5"/>
    <rect class="st6" x="1976" y="1782.2" width="93.4" height="224.2" rx="5" ry="5"/>
    <line class="st3" x1="1471.5" y1="2015.8" x2="2097.5" y2="2015.8"/>
  </g>
  <text class="st7" transform="translate(971.7 2400)"><tspan x="0" y="0">toggle</tspan></text>
  <rect class="st1" x="1415.4" y="1400.4" width="738.1" height="37.4" rx="10" ry="10"/>
  <text class="st8" transform="translate(1434.1 1425.6)"><tspan x="0" y="0">```</tspan></text>
  <rect class="st1" x="359.6" y="1400.4" width="738.1" height="37.4" rx="10" ry="10"/>
  <text class="st8" transform="translate(378.3 1425.6)"><tspan x="0" y="0">```</tspan></text>
</svg>